<?xml version="1.0" encoding="utf-8"?>
<!-- Generator: Adobe Illustrator 21.0.0, SVG Export Plug-In . SVG Version: 6.00 Build 0)  -->
<svg version="1.1" id="Слой_1" xmlns="http://www.w3.org/2000/svg" xmlns:xlink="http://www.w3.org/1999/xlink" x="0px" y="0px"
	 viewBox="0 0 16 16" enable-background="new 0 0 16 16" xml:space="preserve">
<g>
	<rect fill="#27140D" width="16" height="16"/>
	<g>
		<g>
			<g>
				<defs>
					<rect id="SVGID_1_" x="1.804" y="11.193" width="2.537" height="2.197"/>
				</defs>
				<clipPath id="SVGID_2_">
					<use xlink:href="#SVGID_1_"  overflow="visible"/>
				</clipPath>
				<g clip-path="url(#SVGID_2_)">
					<defs>
						<polygon id="SVGID_3_" points="2.438,13.389 3.706,13.389 4.341,12.291 3.706,11.193 2.438,11.193 1.804,12.291 						"/>
					</defs>
					<clipPath id="SVGID_4_">
						<use xlink:href="#SVGID_3_"  overflow="visible"/>
					</clipPath>
				</g>
			</g>
		</g>
		<g>
			<defs>
				<rect id="SVGID_5_" x="1.804" y="11.211" width="2.541" height="2.265"/>
			</defs>
			<clipPath id="SVGID_6_">
				<use xlink:href="#SVGID_5_"  overflow="visible"/>
			</clipPath>
			<g clip-path="url(#SVGID_6_)">
				<defs>
					<polygon id="SVGID_7_" points="2.439,13.475 3.71,13.475 4.345,12.343 3.71,11.211 2.439,11.211 1.804,12.343 					"/>
				</defs>
				<clipPath id="SVGID_8_">
					<use xlink:href="#SVGID_7_"  overflow="visible"/>
				</clipPath>
				
					<linearGradient id="SVGID_9_" gradientUnits="userSpaceOnUse" x1="-567.313" y1="859.425" x2="-567.2885" y2="859.425" gradientTransform="matrix(-52.9592 -91.728 -91.728 52.9592 48792.6172 -97539.4766)">
					<stop  offset="0" style="stop-color:#FFFFFF"/>
					<stop  offset="1" style="stop-color:#000000"/>
				</linearGradient>
				<polygon opacity="0.2" clip-path="url(#SVGID_8_)" fill="url(#SVGID_9_)" points="2.439,14.576 0.823,11.777 3.71,10.11 
					5.326,12.909 				"/>
			</g>
		</g>
		<g>
			<defs>
				<rect id="SVGID_10_" x="1.804" y="8.735" width="2.541" height="2.265"/>
			</defs>
			<clipPath id="SVGID_11_">
				<use xlink:href="#SVGID_10_"  overflow="visible"/>
			</clipPath>
			<polygon opacity="0.6" clip-path="url(#SVGID_11_)" fill="#FFF8B5" points="2.439,10.999 3.71,10.999 4.345,9.867 3.71,8.735 
				2.439,8.735 1.804,9.867 			"/>
		</g>
		<g>
			<defs>
				<rect id="SVGID_12_" x="3.88" y="9.985" width="2.541" height="2.265"/>
			</defs>
			<clipPath id="SVGID_13_">
				<use xlink:href="#SVGID_12_"  overflow="visible"/>
			</clipPath>
			<g clip-path="url(#SVGID_13_)">
				<defs>
					<polygon id="SVGID_14_" points="4.515,12.25 5.786,12.25 6.421,11.117 5.786,9.985 4.515,9.985 3.88,11.117 					"/>
				</defs>
				<clipPath id="SVGID_15_">
					<use xlink:href="#SVGID_14_"  overflow="visible"/>
				</clipPath>
				
					<linearGradient id="SVGID_16_" gradientUnits="userSpaceOnUse" x1="-562.7523" y1="846.1631" x2="-562.7278" y2="846.1631" gradientTransform="matrix(0 -92.378 -92.378 0 78172.0078 -51973.6797)">
					<stop  offset="0" style="stop-color:#FFFFFF"/>
					<stop  offset="1" style="stop-color:#000000"/>
				</linearGradient>
				<rect x="3.88" y="9.985" opacity="0.2" clip-path="url(#SVGID_15_)" fill="url(#SVGID_16_)" width="2.541" height="2.265"/>
			</g>
		</g>
		<g>
			<defs>
				<rect id="SVGID_17_" x="3.892" y="7.509" width="2.541" height="2.265"/>
			</defs>
			<clipPath id="SVGID_18_">
				<use xlink:href="#SVGID_17_"  overflow="visible"/>
			</clipPath>
			<polygon opacity="0.6" clip-path="url(#SVGID_18_)" fill="#FFF8B5" points="4.527,9.774 5.798,9.774 6.433,8.641 5.798,7.509 
				4.527,7.509 3.892,8.641 			"/>
		</g>
		<g>
			<defs>
				<rect id="SVGID_19_" x="5.98" y="11.235" width="2.541" height="2.265"/>
			</defs>
			<clipPath id="SVGID_20_">
				<use xlink:href="#SVGID_19_"  overflow="visible"/>
			</clipPath>
			<g clip-path="url(#SVGID_20_)">
				<defs>
					<polygon id="SVGID_21_" points="6.615,13.5 7.886,13.5 8.521,12.368 7.886,11.235 6.615,11.235 5.98,12.368 					"/>
				</defs>
				<clipPath id="SVGID_22_">
					<use xlink:href="#SVGID_21_"  overflow="visible"/>
				</clipPath>
				
					<linearGradient id="SVGID_23_" gradientUnits="userSpaceOnUse" x1="-562.2137" y1="847.0671" x2="-562.1892" y2="847.0671" gradientTransform="matrix(0 -92.378 -92.378 0 78257.6172 -51922.6797)">
					<stop  offset="0" style="stop-color:#FFFFFF"/>
					<stop  offset="1" style="stop-color:#000000"/>
				</linearGradient>
				<rect x="5.98" y="11.235" opacity="0.2" clip-path="url(#SVGID_22_)" fill="url(#SVGID_23_)" width="2.541" height="2.265"/>
			</g>
		</g>
		<g>
			<defs>
				<rect id="SVGID_24_" x="5.98" y="8.759" width="2.541" height="2.265"/>
			</defs>
			<clipPath id="SVGID_25_">
				<use xlink:href="#SVGID_24_"  overflow="visible"/>
			</clipPath>
			<polygon opacity="0.6" clip-path="url(#SVGID_25_)" fill="#FFF8B5" points="6.615,11.024 7.886,11.024 8.521,9.892 7.886,8.759 
				6.615,8.759 5.98,9.892 			"/>
		</g>
		<g>
			<defs>
				<rect id="SVGID_26_" x="8.055" y="10.01" width="2.541" height="2.265"/>
			</defs>
			<clipPath id="SVGID_27_">
				<use xlink:href="#SVGID_26_"  overflow="visible"/>
			</clipPath>
			<g clip-path="url(#SVGID_27_)">
				<defs>
					<polygon id="SVGID_28_" points="8.691,12.274 9.961,12.274 10.597,11.142 9.961,10.01 8.691,10.01 8.055,11.142 					"/>
				</defs>
				<clipPath id="SVGID_29_">
					<use xlink:href="#SVGID_28_"  overflow="visible"/>
				</clipPath>
				
					<linearGradient id="SVGID_30_" gradientUnits="userSpaceOnUse" x1="-566.5295" y1="861.6845" x2="-566.5051" y2="861.6845" gradientTransform="matrix(-52.9592 -91.728 -91.728 52.9592 49047.6172 -97588.4766)">
					<stop  offset="0" style="stop-color:#FFFFFF"/>
					<stop  offset="1" style="stop-color:#000000"/>
				</linearGradient>
				<polygon opacity="0.2" clip-path="url(#SVGID_29_)" fill="url(#SVGID_30_)" points="8.691,13.375 7.075,10.576 9.961,8.909 
					11.577,11.708 				"/>
			</g>
		</g>
		<g>
			<defs>
				<rect id="SVGID_31_" x="8.068" y="7.534" width="2.541" height="2.265"/>
			</defs>
			<clipPath id="SVGID_32_">
				<use xlink:href="#SVGID_31_"  overflow="visible"/>
			</clipPath>
			<g clip-path="url(#SVGID_32_)">
				<defs>
					<polygon id="SVGID_33_" points="8.703,9.798 9.974,9.798 10.609,8.666 9.974,7.534 8.703,7.534 8.068,8.666 					"/>
				</defs>
				<clipPath id="SVGID_34_">
					<use xlink:href="#SVGID_33_"  overflow="visible"/>
				</clipPath>
				
					<linearGradient id="SVGID_35_" gradientUnits="userSpaceOnUse" x1="-568.9896" y1="868.8046" x2="-568.965" y2="868.8046" gradientTransform="matrix(-72.1057 -72.1057 -72.1057 72.1057 21628.5996 -103663.6016)">
					<stop  offset="0" style="stop-color:#FFFFFF"/>
					<stop  offset="1" style="stop-color:#000000"/>
				</linearGradient>
				<polygon opacity="0.2" clip-path="url(#SVGID_34_)" fill="url(#SVGID_35_)" points="9.338,11.069 6.935,8.666 9.338,6.263 
					11.741,8.666 				"/>
			</g>
		</g>
		<g>
			<defs>
				<rect id="SVGID_36_" x="5.98" y="6.202" width="2.541" height="2.265"/>
			</defs>
			<clipPath id="SVGID_37_">
				<use xlink:href="#SVGID_36_"  overflow="visible"/>
			</clipPath>
			<polygon opacity="0.6" clip-path="url(#SVGID_37_)" fill="#FFF8B5" points="6.615,8.466 7.886,8.466 8.521,7.334 7.886,6.202 
				6.615,6.202 5.98,7.334 			"/>
		</g>
		<g>
			<defs>
				<rect id="SVGID_38_" x="5.98" y="3.726" width="2.541" height="2.264"/>
			</defs>
			<clipPath id="SVGID_39_">
				<use xlink:href="#SVGID_38_"  overflow="visible"/>
			</clipPath>
			<polygon opacity="0.6" clip-path="url(#SVGID_39_)" fill="#FFF8B5" points="6.615,5.99 7.886,5.99 8.521,4.858 7.886,3.726 
				6.615,3.726 5.98,4.858 			"/>
		</g>
		<g>
			<defs>
				<rect id="SVGID_40_" x="8.055" y="4.976" width="2.541" height="2.265"/>
			</defs>
			<clipPath id="SVGID_41_">
				<use xlink:href="#SVGID_40_"  overflow="visible"/>
			</clipPath>
			<polygon opacity="0.6" clip-path="url(#SVGID_41_)" fill="#FFF8B5" points="8.691,7.241 9.961,7.241 10.597,6.108 9.961,4.976 
				8.691,4.976 8.055,6.108 			"/>
		</g>
		<g>
			<defs>
				<rect id="SVGID_42_" x="8.068" y="2.5" width="2.541" height="2.264"/>
			</defs>
			<clipPath id="SVGID_43_">
				<use xlink:href="#SVGID_42_"  overflow="visible"/>
			</clipPath>
			<polygon opacity="0.6" clip-path="url(#SVGID_43_)" fill="#FFF8B5" points="8.703,4.765 9.974,4.765 10.609,3.632 9.974,2.5 
				8.703,2.5 8.068,3.632 			"/>
		</g>
		<g>
			<defs>
				<rect id="SVGID_44_" x="10.164" y="6.202" width="2.541" height="2.265"/>
			</defs>
			<clipPath id="SVGID_45_">
				<use xlink:href="#SVGID_44_"  overflow="visible"/>
			</clipPath>
			<g clip-path="url(#SVGID_45_)">
				<defs>
					<polygon id="SVGID_46_" points="10.799,8.466 12.07,8.466 12.705,7.334 12.07,6.202 10.799,6.202 10.164,7.334 					"/>
				</defs>
				<clipPath id="SVGID_47_">
					<use xlink:href="#SVGID_46_"  overflow="visible"/>
				</clipPath>
				
					<linearGradient id="SVGID_48_" gradientUnits="userSpaceOnUse" x1="-568.7788" y1="869.7505" x2="-568.7543" y2="869.7505" gradientTransform="matrix(-72.1057 -72.1057 -72.1057 72.1057 21714.0996 -103717.9453)">
					<stop  offset="0" style="stop-color:#FFFFFF"/>
					<stop  offset="1" style="stop-color:#000000"/>
				</linearGradient>
				<polygon opacity="0.2" clip-path="url(#SVGID_47_)" fill="url(#SVGID_48_)" points="11.434,9.737 9.031,7.334 11.434,4.931 
					13.837,7.334 				"/>
			</g>
		</g>
		<g>
			<defs>
				<rect id="SVGID_49_" x="10.164" y="3.726" width="2.541" height="2.264"/>
			</defs>
			<clipPath id="SVGID_50_">
				<use xlink:href="#SVGID_49_"  overflow="visible"/>
			</clipPath>
			<polygon opacity="0.6" clip-path="url(#SVGID_50_)" fill="#FFF8B5" points="10.799,5.99 12.07,5.99 12.705,4.858 12.07,3.726 
				10.799,3.726 10.164,4.858 			"/>
		</g>
		<g>
			<defs>
				<rect id="SVGID_51_" x="12.239" y="4.976" width="2.541" height="2.265"/>
			</defs>
			<clipPath id="SVGID_52_">
				<use xlink:href="#SVGID_51_"  overflow="visible"/>
			</clipPath>
			<g clip-path="url(#SVGID_52_)">
				<defs>
					<polygon id="SVGID_53_" points="12.875,7.241 14.145,7.241 14.781,6.108 14.145,4.976 12.875,4.976 12.239,6.108 					"/>
				</defs>
				<clipPath id="SVGID_54_">
					<use xlink:href="#SVGID_53_"  overflow="visible"/>
				</clipPath>
				
					<linearGradient id="SVGID_55_" gradientUnits="userSpaceOnUse" x1="-569.8879" y1="878.4318" x2="-569.8633" y2="878.4318" gradientTransform="matrix(-78.8758 -45.539 -45.539 78.8758 -4932.978 -95232.4688)">
					<stop  offset="0" style="stop-color:#FFFFFF"/>
					<stop  offset="1" style="stop-color:#000000"/>
				</linearGradient>
				<polygon opacity="0.2" clip-path="url(#SVGID_54_)" fill="url(#SVGID_55_)" points="14.145,8.341 11.259,6.674 12.874,3.875 
					15.761,5.542 				"/>
			</g>
		</g>
		<g>
			<defs>
				<rect id="SVGID_56_" x="12.251" y="2.5" width="2.541" height="2.264"/>
			</defs>
			<clipPath id="SVGID_57_">
				<use xlink:href="#SVGID_56_"  overflow="visible"/>
			</clipPath>
			<g clip-path="url(#SVGID_57_)">
				<defs>
					<polygon id="SVGID_58_" points="12.887,4.765 14.157,4.765 14.793,3.632 14.157,2.5 12.887,2.5 12.251,3.632 					"/>
				</defs>
				<clipPath id="SVGID_59_">
					<use xlink:href="#SVGID_58_"  overflow="visible"/>
				</clipPath>
				
					<linearGradient id="SVGID_60_" gradientUnits="userSpaceOnUse" x1="-558.7587" y1="888.9087" x2="-558.7341" y2="888.9087" gradientTransform="matrix(-103.6667 0 0 103.6667 -57909.875 -92146.5938)">
					<stop  offset="0" style="stop-color:#FFFFFF"/>
					<stop  offset="1" style="stop-color:#000000"/>
				</linearGradient>
				<rect x="12.251" y="2.5" opacity="0.2" clip-path="url(#SVGID_59_)" fill="url(#SVGID_60_)" width="2.541" height="2.265"/>
			</g>
		</g>
		<path fill="#FFE65B" d="M3.676,6.531C3.834,6.704,3.955,6.917,4.04,7.169c0.084,0.252,0.126,0.537,0.126,0.857
			c0,0.319-0.043,0.605-0.129,0.858C3.951,9.136,3.831,9.347,3.676,9.515C3.517,9.69,3.328,9.822,3.11,9.911
			c-0.218,0.089-0.467,0.133-0.746,0.133c-0.273,0-0.52-0.045-0.743-0.135c-0.223-0.09-0.413-0.221-0.569-0.393
			C0.895,9.343,0.775,9.132,0.691,8.882c-0.084-0.25-0.126-0.535-0.126-0.857c0-0.316,0.042-0.599,0.125-0.85
			C0.773,6.924,0.894,6.71,1.054,6.531c0.153-0.17,0.342-0.3,0.569-0.391C1.85,6.05,2.097,6.005,2.364,6.005
			c0.278,0,0.527,0.046,0.749,0.137C3.334,6.233,3.522,6.363,3.676,6.531z M3.629,8.025c0-0.503-0.113-0.892-0.339-1.165
			C3.065,6.587,2.757,6.45,2.367,6.45c-0.394,0-0.703,0.137-0.928,0.41C1.213,7.134,1.101,7.522,1.101,8.025
			c0,0.509,0.115,0.898,0.344,1.168c0.229,0.27,0.536,0.405,0.922,0.405c0.385,0,0.692-0.135,0.92-0.405
			C3.515,8.923,3.629,8.534,3.629,8.025z"/>
		<path fill="#FFE65B" d="M9.676,8.856c0,0.151-0.035,0.3-0.105,0.448C9.5,9.452,9.401,9.577,9.275,9.679
			C9.136,9.79,8.974,9.877,8.789,9.939c-0.185,0.062-0.408,0.094-0.668,0.094c-0.28,0-0.531-0.026-0.754-0.078
			c-0.223-0.052-0.45-0.129-0.681-0.232V9.077h0.036c0.196,0.163,0.423,0.289,0.68,0.378c0.257,0.089,0.498,0.133,0.724,0.133
			c0.319,0,0.568-0.06,0.746-0.18c0.178-0.12,0.267-0.279,0.267-0.479c0-0.172-0.042-0.299-0.126-0.38
			c-0.084-0.082-0.212-0.145-0.384-0.19c-0.13-0.035-0.271-0.063-0.423-0.086C8.054,8.25,7.893,8.222,7.723,8.187
			C7.379,8.114,7.124,7.989,6.958,7.813C6.793,7.637,6.71,7.408,6.71,7.125c0-0.325,0.137-0.591,0.411-0.798
			c0.274-0.207,0.622-0.311,1.044-0.311c0.273,0,0.522,0.026,0.75,0.078C9.143,6.145,9.344,6.21,9.519,6.286v0.609H9.483
			C9.335,6.77,9.141,6.667,8.901,6.584c-0.24-0.082-0.487-0.124-0.738-0.124c-0.276,0-0.498,0.057-0.665,0.172
			C7.33,6.747,7.246,6.895,7.246,7.075c0,0.161,0.042,0.288,0.125,0.38c0.083,0.092,0.23,0.162,0.44,0.211
			C7.922,7.69,8.08,7.72,8.285,7.755c0.205,0.035,0.378,0.07,0.521,0.107c0.288,0.076,0.505,0.192,0.651,0.346
			C9.603,8.362,9.676,8.578,9.676,8.856z"/>
		<path fill="#FFE65B" d="M15.435,9.963h-0.549l-0.38-1.081h-1.677l-0.38,1.081h-0.523l1.411-3.877h0.687L15.435,9.963z
			 M14.347,8.439l-0.68-1.903l-0.682,1.903H14.347z"/>
	</g>
</g>
</svg>
